<?xml version="1.0" encoding="UTF-8" standalone="no"?>
<!DOCTYPE svg PUBLIC "-//W3C//DTD SVG 1.1//EN"
 "http://www.w3.org/Graphics/SVG/1.1/DTD/svg11.dtd">
<!-- Generated by graphviz version 2.47.3 (20210619.1520)
 -->
<!-- Title: dependencies Pages: 1 -->
<svg width="456pt" height="174pt"
 viewBox="0.00 0.00 456.00 173.80" xmlns="http://www.w3.org/2000/svg" xmlns:xlink="http://www.w3.org/1999/xlink">
<g id="graph0" class="graph" transform="scale(1 1) rotate(0) translate(4 169.8)">
<title>dependencies</title>
<polygon fill="white" stroke="transparent" points="-4,4 -4,-169.8 452,-169.8 452,4 -4,4"/>
<text text-anchor="middle" x="224" y="-8.2" font-family="sans-serif" font-size="14.00">dependencies</text>
<g id="clust1" class="cluster">
<title>cluster_HomePageModule</title>
<polygon fill="none" stroke="black" stroke-dasharray="1,5" points="8,-32.8 8,-157.8 440,-157.8 440,-32.8 8,-32.8"/>
</g>
<g id="clust5" class="cluster">
<title>cluster_HomePageModule_imports</title>
<polygon fill="none" stroke="black" points="250,-40.8 250,-92.8 432,-92.8 432,-40.8 250,-40.8"/>
</g>
<g id="clust2" class="cluster">
<title>cluster_HomePageModule_declarations</title>
<polygon fill="none" stroke="black" points="16,-40.8 16,-92.8 242,-92.8 242,-40.8 16,-40.8"/>
</g>
<!-- HomePage -->
<g id="node1" class="node">
<title>HomePage</title>
<polygon fill="#ffffb3" stroke="black" points="233.92,-84.8 156.08,-84.8 156.08,-48.8 233.92,-48.8 233.92,-84.8"/>
<text text-anchor="middle" x="195" y="-62.6" font-family="Times,serif" font-size="14.00">HomePage</text>
</g>
<!-- HomePageModule -->
<g id="node3" class="node">
<title>HomePageModule</title>
<polygon fill="#8dd3c7" stroke="black" points="255.47,-149.8 252.47,-153.8 231.47,-153.8 228.47,-149.8 134.53,-149.8 134.53,-113.8 255.47,-113.8 255.47,-149.8"/>
<text text-anchor="middle" x="195" y="-127.6" font-family="Times,serif" font-size="14.00">HomePageModule</text>
</g>
<!-- HomePage&#45;&gt;HomePageModule -->
<g id="edge1" class="edge">
<title>HomePage&#45;&gt;HomePageModule</title>
<path fill="none" stroke="black" d="M195,-84.91C195,-84.91 195,-103.79 195,-103.79"/>
<polygon fill="black" stroke="black" points="191.5,-103.79 195,-113.79 198.5,-103.79 191.5,-103.79"/>
</g>
<!-- MenuComponent -->
<g id="node2" class="node">
<title>MenuComponent</title>
<polygon fill="#ffffb3" stroke="black" points="137.99,-84.8 24.01,-84.8 24.01,-48.8 137.99,-48.8 137.99,-84.8"/>
<text text-anchor="middle" x="81" y="-62.6" font-family="Times,serif" font-size="14.00">MenuComponent</text>
</g>
<!-- MenuComponent&#45;&gt;HomePageModule -->
<g id="edge2" class="edge">
<title>MenuComponent&#45;&gt;HomePageModule</title>
<path fill="none" stroke="black" d="M138.22,-66.8C143.63,-66.8 147.14,-66.8 147.14,-66.8 147.14,-66.8 147.14,-103.69 147.14,-103.69"/>
<polygon fill="black" stroke="black" points="143.64,-103.69 147.14,-113.69 150.64,-103.69 143.64,-103.69"/>
</g>
<!-- HomePageRoutingModule -->
<g id="node4" class="node">
<title>HomePageRoutingModule</title>
<polygon fill="#8dd3c7" stroke="black" points="424.09,-84.8 421.09,-88.8 400.09,-88.8 397.09,-84.8 257.91,-84.8 257.91,-48.8 424.09,-48.8 424.09,-84.8"/>
<text text-anchor="middle" x="341" y="-62.6" font-family="Times,serif" font-size="14.00">HomePageRoutingModule</text>
</g>
<!-- HomePageRoutingModule&#45;&gt;HomePageModule -->
<g id="edge3" class="edge">
<title>HomePageRoutingModule&#45;&gt;HomePageModule</title>
<path fill="none" stroke="black" d="M257.6,-66.8C249.72,-66.8 244.6,-66.8 244.6,-66.8 244.6,-66.8 244.6,-103.69 244.6,-103.69"/>
<polygon fill="black" stroke="black" points="241.1,-103.69 244.6,-113.69 248.1,-103.69 241.1,-103.69"/>
</g>
</g>
</svg>
