<?xml version="1.0" encoding="UTF-8" standalone="no"?>
<!DOCTYPE svg PUBLIC "-//W3C//DTD SVG 1.1//EN"
 "http://www.w3.org/Graphics/SVG/1.1/DTD/svg11.dtd">
<!-- Generated by graphviz version 2.47.3 (20210619.1520)
 -->
<!-- Title: dependencies Pages: 1 -->
<svg width="645pt" height="247pt"
 viewBox="0.00 0.00 645.00 246.80" xmlns="http://www.w3.org/2000/svg" xmlns:xlink="http://www.w3.org/1999/xlink">
<g id="graph0" class="graph" transform="scale(1 1) rotate(0) translate(4 242.8)">
<title>dependencies</title>
<polygon fill="white" stroke="transparent" points="-4,4 -4,-242.8 641,-242.8 641,4 -4,4"/>
<text text-anchor="middle" x="318.5" y="-8.2" font-family="sans-serif" font-size="14.00">dependencies</text>
<g id="clust1" class="cluster">
<title>cluster_AppModule</title>
<polygon fill="none" stroke="black" stroke-dasharray="1,5" points="8,-32.8 8,-230.8 629,-230.8 629,-32.8 8,-32.8"/>
</g>
<g id="clust6" class="cluster">
<title>cluster_AppModule_imports</title>
<polygon fill="none" stroke="black" points="477,-40.8 477,-92.8 621,-92.8 621,-40.8 477,-40.8"/>
</g>
<g id="clust8" class="cluster">
<title>cluster_AppModule_bootstrap</title>
<polygon fill="none" stroke="black" points="275,-170.8 275,-222.8 399,-222.8 399,-170.8 275,-170.8"/>
</g>
<g id="clust2" class="cluster">
<title>cluster_AppModule_declarations</title>
<polygon fill="none" stroke="black" points="16,-40.8 16,-92.8 469,-92.8 469,-40.8 16,-40.8"/>
</g>
<!-- AppComponent -->
<g id="node1" class="node">
<title>AppComponent</title>
<polygon fill="#ffffb3" stroke="black" points="460.94,-84.8 355.06,-84.8 355.06,-48.8 460.94,-48.8 460.94,-84.8"/>
<text text-anchor="middle" x="408" y="-62.6" font-family="Times,serif" font-size="14.00">AppComponent</text>
</g>
<!-- AppModule -->
<g id="node4" class="node">
<title>AppModule</title>
<polygon fill="#8dd3c7" stroke="black" points="378.66,-149.8 375.66,-153.8 354.66,-153.8 351.66,-149.8 295.34,-149.8 295.34,-113.8 378.66,-113.8 378.66,-149.8"/>
<text text-anchor="middle" x="337" y="-127.6" font-family="Times,serif" font-size="14.00">AppModule</text>
</g>
<!-- AppComponent&#45;&gt;AppModule -->
<g id="edge1" class="edge">
<title>AppComponent&#45;&gt;AppModule</title>
<path fill="none" stroke="black" d="M367.05,-84.91C367.05,-84.91 367.05,-103.79 367.05,-103.79"/>
<polygon fill="black" stroke="black" points="363.55,-103.79 367.05,-113.79 370.55,-103.79 363.55,-103.79"/>
</g>
<!-- MenuFirstComponent -->
<g id="node2" class="node">
<title>MenuFirstComponent</title>
<polygon fill="#ffffb3" stroke="black" points="336.66,-84.8 197.34,-84.8 197.34,-48.8 336.66,-48.8 336.66,-84.8"/>
<text text-anchor="middle" x="267" y="-62.6" font-family="Times,serif" font-size="14.00">MenuFirstComponent</text>
</g>
<!-- MenuFirstComponent&#45;&gt;AppModule -->
<g id="edge2" class="edge">
<title>MenuFirstComponent&#45;&gt;AppModule</title>
<path fill="none" stroke="black" d="M316,-84.91C316,-84.91 316,-103.79 316,-103.79"/>
<polygon fill="black" stroke="black" points="312.5,-103.79 316,-113.79 319.5,-103.79 312.5,-103.79"/>
</g>
<!-- MenuSecondComponent -->
<g id="node3" class="node">
<title>MenuSecondComponent</title>
<polygon fill="#ffffb3" stroke="black" points="179.7,-84.8 24.3,-84.8 24.3,-48.8 179.7,-48.8 179.7,-84.8"/>
<text text-anchor="middle" x="102" y="-62.6" font-family="Times,serif" font-size="14.00">MenuSecondComponent</text>
</g>
<!-- MenuSecondComponent&#45;&gt;AppModule -->
<g id="edge3" class="edge">
<title>MenuSecondComponent&#45;&gt;AppModule</title>
<path fill="none" stroke="black" d="M102,-84.91C102,-104.14 102,-131.8 102,-131.8 102,-131.8 285.26,-131.8 285.26,-131.8"/>
<polygon fill="black" stroke="black" points="285.26,-135.3 295.26,-131.8 285.26,-128.3 285.26,-135.3"/>
</g>
<!-- AppComponent  -->
<g id="node6" class="node">
<title>AppComponent </title>
<polygon fill="#80b1d3" stroke="black" points="391.44,-214.8 282.56,-214.8 282.56,-178.8 391.44,-178.8 391.44,-214.8"/>
<text text-anchor="middle" x="337" y="-192.6" font-family="Times,serif" font-size="14.00">AppComponent </text>
</g>
<!-- AppModule&#45;&gt;AppComponent  -->
<g id="edge5" class="edge">
<title>AppModule&#45;&gt;AppComponent </title>
<path fill="none" stroke="black" stroke-dasharray="1,5" d="M337,-149.91C337,-149.91 337,-168.79 337,-168.79"/>
<polygon fill="black" stroke="black" points="333.5,-168.79 337,-178.79 340.5,-168.79 333.5,-168.79"/>
</g>
<!-- AppRoutingModule -->
<g id="node5" class="node">
<title>AppRoutingModule</title>
<polygon fill="#8dd3c7" stroke="black" points="613.27,-84.8 610.27,-88.8 589.27,-88.8 586.27,-84.8 484.73,-84.8 484.73,-48.8 613.27,-48.8 613.27,-84.8"/>
<text text-anchor="middle" x="549" y="-62.6" font-family="Times,serif" font-size="14.00">AppRoutingModule</text>
</g>
<!-- AppRoutingModule&#45;&gt;AppModule -->
<g id="edge4" class="edge">
<title>AppRoutingModule&#45;&gt;AppModule</title>
<path fill="none" stroke="black" d="M549,-84.91C549,-104.14 549,-131.8 549,-131.8 549,-131.8 388.88,-131.8 388.88,-131.8"/>
<polygon fill="black" stroke="black" points="388.88,-128.3 378.88,-131.8 388.88,-135.3 388.88,-128.3"/>
</g>
</g>
</svg>
